<?xml version="1.0" encoding="UTF-8"?>
<svg id="Layer_1" xmlns="http://www.w3.org/2000/svg" version="1.1" viewBox="0 0 1545 689">
  <!-- Generator: Adobe Illustrator 29.3.1, SVG Export Plug-In . SVG Version: 2.1.0 Build 151)  -->
  <defs>
    <style>
      .st0 {
        fill: #fff;
        fill-rule: evenodd;
      }
    </style>
  </defs>
  <path class="st0" d="M1056.7,379.5s-37.1,7.1-42,7.5c-28.9,2.9-41-3.3-47.1-14.9-2.8-5.1-1.9-19.2,2.3-34.3,3.4-12.6-.8-25.9-9.7-20.5-9.1,5.4-56.6,47.8-62,52.6-5.6,4.8-26.9,25.2-35.9,17.8-11.7-9.6-10.9-19.9-8.9-29.4,2-9.6,6.4-29.1,8.2-32.8,4.9-10.3,5.6-21.9-4.8-19.2-10.3,2.8-26.1,15.1-31.7,17.8-5.6,2.8-70.3,45.1-80.7,51.3-10.3,6.1-19.4,10.2-28.3,4.8-9-5.4-11-16.4-10.3-26.7.7-10.2,4.9-26.6,6.2-32.8,1.5-6.2,0-19.9-8.9-13.7-9,6.2-59.4,49.3-64.8,54.1-5.5,4.7-22.8,19.7-34.5,15.7-8.7-3-20.6-8.2-19.2-19.8,1.3-11.7,9.5-25.3,12.3-35,2.8-9.6,11.8-39.7-8.2-36.2-16.5,2.9-69,35.8-82.5,47.7-6,5.2-10.4,14.5-9.8,22.4,10.8,139.3-71.8,281.7-203.3,323.4-19.8,6.3-43.8,9.1-65.5,8.8-2,0-4.6-.3-6.3-.9-27.6,2.1-57.2-10.7-79.5-22.6-14.6-7.7-26.4-20.4-33.6-34.6-34-66.7,68.3-135.5,109.8-172.6,24.1-19.7,48.1-39.4,72.2-59.1,14.8-12.9,52.9-37.9,52.9-37.9,0,0,1.4-24.3,26.1-53.2,17-20,32.2-41.7,42.9-64.9,4.8-10.1,6.5-24,5.6-35.6-.1-4.7,4.8-10.3,11.3-9.9,17.9,2.1,26,28.9,20.5,45.5-6,18-22.1,34.9-34.1,50.2-15.9,16.9-3.2,3.4-36.5,42.9-5.2,6.3-6.7,23.4.8,19.5,24.3-11.7,46.1-30,67.3-46.9,15-12.1,26.3-30.7,47-33.5,9.8-1.3,13.6,5.1,13.8,13.8.1,1.7,1.4,2.1,1.4,2.5,2.5-.2,5.2-.4,7.6-.6,3-.7,82.7-29.2,89.9-32.3,13.1-5.4,29.7-8.8,31-1.3,1.3,7.5,7.6,12.4,0,28.7-7.7,16.5-9,24.7-9.7,28.8-.7,4.2-.7,15.8,8.2,8.9,9-6.8,75.9-53.4,84.2-57.5,8.2-4,29.6-8.9,26.8,13-2.1,16.7-6.2,32.1-7.6,41.7-1.3,9.6-1.3,30,15.8,21.8,17.3-8.2,55.9-29.4,70.3-39.6,14.5-10.3,36.6-25.4,40.7-29.4,4.1-4.3,18.6-13.1,25.5-9.7,6.9,3.5,15.2,11,11.1,22.6-4.2,11.6-11.7,31.4-15.2,36.9-3.4,5.4.7,19.8,13.8,8.9,13.1-11,58.5-41.8,64.7-47.3,6.2-5.4,22.1-15.8,30.3-15,7.6.7,15.9,12.4,11.8,28.8-2.2,8-9.7,42.4-9.1,47.8.8,5.6,2.1,22.6,20.1,17.8,17.9-4.7,35.2-8.2,35.2-8.2,4.1-.7,139-26.5,160.8-24.9,81.2,5.6,104.2,26.3,190.4,19.6,9.2-1.5,44-3.4,62,2.5,3.8,1.3,7.3,4.6,4.3,8.8-13.7,19.2-36.1,17.8-57.2,17.8s-65.5-1.3-83.2-3.4c-21.3-1.2-87.9-21.7-110.3-21.7-49.6-5.2-157.3,24-164.8,25.3M1061.2,295.3c-7.1,0-12.8-6-12.7-13.2,0-7.2,5.9-12.8,13.1-12.7,7.3,0,13,6,12.8,13.1,0,7-6,12.8-13.3,12.7h0ZM1072.3,282.4c0-6-4.8-10.8-10.8-10.8s-10.9,4.8-10.9,10.8,4.9,10.8,10.9,10.8,10.8-4.8,10.8-10.8ZM1055.9,275.6h6.2c3.4.1,4.5,2.3,4.5,3.8,0,2.2-1.6,3.8-4,3.9,1.3.6,2,1.7,3.2,3.7l1.7,2.7h-2.8l-1.2-2.2c-1.7-3.1-2.4-3.7-4.1-3.7h-1.3v5.8h-2.3l.2-13.9h0ZM475.7.4s0,0-.1,0h.1ZM475.6.3c19.7,1.3,32.5,33.5,27.4,52-5.6,20.2-22.4,39.5-34.7,57.1-8.5,13.3-17.1,26.6-25.7,39.7-35.2,48.3-22.1,43.4-60.4,92-32.5,41.3-54.7,59.7-78,81.5-56.7,53-102.6,59.9-113.3,58.6-18-5.6-40.2-1.4-37.3-29,.2-2.6,2-15.4,2.7-18.2.8-2.9-1.7-8.2.8-8.4-16.3-3.7-70.1,33.9-87.3,44-22.7,13.3-36.4,11.1-45.7,5.5-63-40.4,17.9-120.7,43-161.5,5.4-7.9,7.9-10.5,11-15.2,7.4-12,60.3-66.5,61.1-24.2.2,10.5-7,19.7-12.1,28.3-11.8,19.8-27.7,42.1-44.8,58.4-16.1,15.4-40.3,35.3-45.8,57.4-1.5,6-.6,15,6.3,17,14,4.2,34.8-10.5,41-15.2,6.2-4.6,23.8-17.8,35.6-25.2,20.6-13,41.4-28.2,60.1-44.4,14.6-12.8,24.3-33.1,42.6-40.2l2.7-.9,2.6-.5c5.1-.3,10.6,0,14.1,3.1,1.4,2.7,2.6,5.4,3.9,8.1-.3,3.8-.5,7.4-.9,11.1-9.1,25.6-73.4,89.3-59.2,117.6,4.6,9.4,30.3.3,35.4-2.9,67.9-43.2,138.5-107.3,197.8-217.6,13.7-25.4,32.4-48,43.5-73.7,4.9-11.2,3.7-31.1,1-44.1-1-7.2,11.6-11.4,12.6-10.2ZM451,443c3.9-26.3,13.4-51.4,13.6-79.5-.9-5-1.9-9.9-2.9-14.8-1.3-4.1-10.7-.9-11.4.9-13.4,9.9-47.8,24.2-64.8,26.6-8.6,1.2-16-1.6-23.4-1-21.9,16.1-43.7,32.4-65.5,48.5-36.2,27.6-70.3,57.4-103.2,90-23.5,23.2-50.6,44.9-55.5,78-1.7,10.9,6.3,28.4,14,33.7,36.9,24.9,73.6,23.8,123.3,20,3.2-.2,25.8-6.4,32.3-8.8,96.3-34.5,128.7-96.9,143.4-193.6h.1ZM1061.2,281.7c1.7,0,2.9-.7,2.9-2.1s-.9-2.1-2.4-2.1h-3.7v4.1h3.2ZM1505.4,351.5c1.1-4.3,9.4-8.1,15.9-6.9,14.5,2.6,20.9,9,22.6,18,1.3,7.1-1.7,9.9-3.3,15.6-1.1,4.3-9.3,8.2-15.9,6.9-14.3-2.6-19.4-9.4-22.4-18-2.5-6.8,1.6-9.9,3.1-15.6h0Z"/>
  <path class="st0" d="M718.8,582.9v-82.7h24.4c8.5,0,14.9,2,19.5,5.9s6.8,9.5,6.8,16.7-1.2,9.8-3.8,13.2c-2.5,3.3-6.5,5.7-11.8,7.4,1.3.7,2.7,1.7,3.9,2.9,1.2,1.3,2.8,3.4,4.8,6.4l20.3,30.2h-14.4l-14.3-21.6c-4.3-6.5-7.8-10.8-10.3-12.5-2.7-1.8-5.8-2.8-9.5-2.8h-3.6v36.9h-12ZM730.9,536h9.9c5.5,0,9.7-1.1,12.5-3.2,2.7-2.1,4.1-5.5,4.1-9.8s-1.4-7.7-3.9-9.7c-2.6-2-6.8-3.1-12.7-3.1h-9.9v25.8ZM807.5,583v-82.8h50.1v10.5h-38.3v25.1h37.3v10.7h-37.3v25.8h39.7v10.7h-51.5ZM889.1,560.9c3.8,4.3,7.4,7.4,10.9,9.3,3.4,1.8,7.1,2.8,11,2.8s7.3-1,9.8-2.8c2.3-1.9,3.5-4.6,3.5-7.8s-.7-5.1-2.4-7.1c-1.6-1.9-5.5-4.9-11.5-8.7-9.4-6.1-15.3-10.7-17.7-14s-3.6-7.3-3.6-11.9,2.4-11.7,7-15.8c4.5-4.1,10.4-6.2,17.7-6.2s6.3.5,9.4,1.5c3.2.9,6.2,2.3,9.5,4.3v13.4c-3.6-2.9-7-5.1-10.2-6.3-3-1.4-6.2-2-9.3-2s-6.8.9-9.1,2.7c-2.4,1.9-3.6,4.2-3.6,7.1s4.9,9.2,14.7,15.3l1.8,1.1c8.1,5,13.3,9.3,15.7,13,2.4,3.8,3.7,8.4,3.7,13.9s-2.4,11.5-7,15.7c-4.5,4.1-10.4,6.2-17.6,6.2s-8.6-.6-12.2-1.8c-3.5-1.3-7.1-3.4-10.5-6.1v-15.8ZM959.9,541.2h0c0,0,0,0,0,0ZM963.3,525.2c2.1-5.2,5.4-9.9,9.7-13.8,4.2-4.1,8.9-7.2,14.4-9.3,5.3-2.1,11-3.2,17-3.2s11.7,1.1,17.1,3.2,10.3,5.2,14.4,9.3c4.3,4.2,7.5,8.8,9.8,13.9,2.2,5.1,3.2,10.7,3.2,16.7s-1.1,11-3.3,16.2c-2.3,5.2-5.5,9.8-9.6,13.7-4.4,4.1-9.2,7.2-14.5,9.3-5.4,2.1-11.1,3.2-17.1,3.2s-11.7-1.1-17.1-3.2c-5.5-2.2-10.2-5.2-14.3-9.3-4.4-4-7.7-8.8-9.7-14-2.3-5.2-3.4-10.7-3.4-16.6s1.1-10.8,3.4-16.1h0ZM972.6,541.7c0,4.2.7,8.2,2.3,12,1.6,3.9,3.9,7.2,6.9,10.2,2.9,3,6.4,5.2,10.3,6.8,3.9,1.7,8,2.5,12.3,2.5s8.4-.8,12.3-2.4c3.9-1.5,7.3-3.8,10.2-6.8,3-3,5.3-6.4,6.9-10.2,1.7-3.9,2.6-7.8,2.6-12s-.9-8.2-2.5-12c-1.5-3.7-3.8-7.2-7-10.3-2.9-3.1-6.4-5.3-10.2-6.9-3.9-1.6-7.9-2.5-12.2-2.5s-8.1.8-12.1,2.5c-3.9,1.6-7.3,3.8-10.5,6.9-3,2.9-5.2,6.3-6.9,10.1-1.5,3.9-2.3,8-2.3,12.2h0ZM1074.2,583v-82.7h24.4c8.5,0,14.9,2,19.5,5.9,4.6,3.8,6.8,9.5,6.8,16.7s-1.2,9.8-3.8,13.1c-2.4,3.3-6.5,5.8-11.9,7.4,1.4.8,2.7,1.8,4,3,1.2,1.2,2.7,3.3,4.8,6.3l20.2,30.3h-14.3l-14.3-21.7c-4.4-6.5-7.8-10.7-10.3-12.5-2.7-1.7-5.8-2.7-9.5-2.7h-3.6v36.9h-12ZM1086.1,536h9.9c5.6,0,9.7-1.1,12.5-3.2,2.8-2.1,4.1-5.4,4.1-9.7s-1.3-7.7-3.9-9.7c-2.5-2-6.7-3.1-12.7-3.1h-9.9v25.7ZM1182.9,582.9v-71.9h-30.6v-10.9h73.1v10.9h-30.7v71.9h-11.8ZM1245.6,560.8c3.8,4.4,7.3,7.5,10.8,9.3,3.4,1.9,7.2,2.9,11,2.9s7.4-1,9.9-2.9c2.3-1.8,3.5-4.5,3.5-7.7s-.8-5.1-2.4-7.1-5.5-5-11.6-8.7c-9.4-6.1-15.3-10.7-17.7-14.1-2.4-3.3-3.5-7.3-3.5-11.8,0-6.4,2.3-11.7,6.9-15.8,4.5-4.1,10.5-6.2,17.7-6.2s6.3.5,9.5,1.4c3.1.9,6.2,2.4,9.4,4.4v13.3c-3.6-2.8-7-5-10.1-6.3s-6.2-2-9.4-2-6.8.9-9.1,2.8c-2.3,1.9-3.5,4.2-3.5,7.1s4.9,9.2,14.7,15.2l1.7,1.1c8.1,5,13.3,9.3,15.7,13.1,2.5,3.8,3.7,8.4,3.7,13.9s-2.3,11.5-6.9,15.7c-4.5,4.1-10.5,6.2-17.7,6.2s-8.5-.7-12.2-1.9c-3.5-1.2-7.1-3.3-10.4-6.1v-15.8Z"/>
</svg>